<svg id="e7CyYDvLEs21" xmlns="http://www.w3.org/2000/svg" xmlns:xlink="http://www.w3.org/1999/xlink" viewBox="0 0 3000 3000" shape-rendering="geometricPrecision" text-rendering="geometricPrecision">
<style><![CDATA[
#e7CyYDvLEs24_to {animation: e7CyYDvLEs24_to__to 3000ms linear infinite normal forwards}@keyframes e7CyYDvLEs24_to__to { 0% {transform: translate(1500.000042px,1500.000088px)} 25% {transform: translate(1500.000042px,1500.000088px)} 33.333333% {transform: translate(-1937.551518px,5062.554677px)} 100% {transform: translate(-1937.551518px,5062.554677px)}} #e7CyYDvLEs29_to {animation: e7CyYDvLEs29_to__to 6000ms linear infinite normal forwards}@keyframes e7CyYDvLEs29_to__to { 0% {transform: translate(1170.200883px,1363.953689px)} 50% {transform: translate(1170.200883px,1363.953689px)} 66.666667% {transform: translate(-1868.419121px,4466.572366px)} 100% {transform: translate(-1868.419121px,4466.572366px)}} #e7CyYDvLEs214_to {animation: e7CyYDvLEs214_to__to 6000ms linear infinite normal forwards}@keyframes e7CyYDvLEs214_to__to { 0% {transform: translate(1101.068486px,2001.451417px)} 10% {transform: translate(-1814.457581px,5532.823905px)} 100% {transform: translate(-1814.457581px,5532.823905px)}} #e7CyYDvLEs219_to {animation: e7CyYDvLEs219_to__to 6000ms linear infinite normal forwards}@keyframes e7CyYDvLEs219_to__to { 0% {transform: translate(1449.854706px,1853.482933px)} 56.666667% {transform: translate(1449.854706px,1853.482933px)} 66.666667% {transform: translate(-1883.960189px,5368.367359px)} 100% {transform: translate(-1883.960189px,5368.367359px)}} #e7CyYDvLEs224_to {animation: e7CyYDvLEs224_to__to 6000ms linear infinite normal forwards}@keyframes e7CyYDvLEs224_to__to { 0% {transform: translate(1052.549352px,1751.30074px)} 81.666667% {transform: translate(1052.549352px,1751.30074px)} 91.666667% {transform: translate(-1787.661903px,4674.622336px)} 100% {transform: translate(-1787.661903px,4674.622336px)}} #e7CyYDvLEs229_to {animation: e7CyYDvLEs229_to__to 6000ms linear infinite normal forwards}@keyframes e7CyYDvLEs229_to__to { 0% {transform: translate(1787.461862px,1692.866778px)} 90% {transform: translate(1787.461862px,1692.866778px)} 98.333333% {transform: translate(-1671.326923px,5042.22623px)} 100% {transform: translate(-1671.326923px,5042.22623px)}}
]]></style>
<rect width="300" height="300" rx="0" ry="0" transform="matrix(10.303023 0 0 10.235683-45.45345-35.35245)" fill="#0d0123" stroke-width="0"/><g transform="translate(1704.091166-1041.846098)"><g id="e7CyYDvLEs24_to" transform="translate(1500.000042,1500.000088)"><g transform="translate(-1500.000042,-1500.000088)"><line x1="-116.935246" y1="133.31937" x2="116.935245" y2="-133.319369" transform="translate(1304.847132 210.766113)" fill="none" stroke="#fefeff" stroke-width="3"/><path d="M1141.942689,400.359366q-10.342039-14.32798-4.405014-25.934652q26.12564-30.975657,41.563833-38.143389t18.746377-13.7841l-15.247695,17.969713q10.145472-.016753,15.247695-4.185613t0,0q-7.887924,6.401554-8.269987,8.439224t-1.018835,2.165025l9.288822-6.418636q-6.375767,8.252514,0,4.126257t7.012539-4.126257q-30.351413,53.630144-30.351413,53.758525c0,.128381-8.479679,10.756719-14.634548,10.935121s-8.835643,2.172097-17.931774-4.801218Z" transform="matrix(.994886 0 0 0.934397 4.754186 27.406959)" fill="#ff5601" stroke="#ff5601"/><path d="M1154.957516,367.545718q16.13284-17.25809,18.485668-17.371879t3.9295-2.31176q-4.316058,7.001606-6.234306,8.344379t7.097518-3.644671l2.01416-1.726424q-1.342774,7.097518-3.836496,9.015766t-3.452846,5.946569l9.878977-6.042482q-6.899876,14.831424-9.396507,16.958996t-2.688455,1.839834l-11.029926-3.740585-4.767287-7.267743Z" transform="translate(0 4.337656)" fill="#89acf3" stroke="#89acf3"/><ellipse rx="18.485668" ry="18.485668" transform="translate(1154.957516 386.031386)" fill="#cfd807" stroke-width="0"/></g></g><g id="e7CyYDvLEs29_to" transform="translate(1170.200883,1363.953689)"><g transform="translate(-1500.000042,-1500.000088)"><line x1="-116.935246" y1="133.31937" x2="116.935245" y2="-133.319369" transform="translate(1304.847132 210.766113)" fill="none" stroke="#fefeff" stroke-width="3"/><path d="M1141.942689,400.359366q-10.342039-14.32798-4.405014-25.934652q26.12564-30.975657,41.563833-38.143389t18.746377-13.7841l-15.247695,17.969713q10.145472-.016753,15.247695-4.185613t0,0q-7.887924,6.401554-8.269987,8.439224t-1.018835,2.165025l9.288822-6.418636q-6.375767,8.252514,0,4.126257t7.012539-4.126257q-30.351413,53.630144-30.351413,53.758525c0,.128381-8.479679,10.756719-14.634548,10.935121s-8.835643,2.172097-17.931774-4.801218Z" transform="matrix(.994886 0 0 0.934397 4.754186 27.406959)" fill="#ff5601" stroke="#ff5601"/><path d="M1154.957516,367.545718q16.13284-17.25809,18.485668-17.371879t3.9295-2.31176q-4.316058,7.001606-6.234306,8.344379t7.097518-3.644671l2.01416-1.726424q-1.342774,7.097518-3.836496,9.015766t-3.452846,5.946569l9.878977-6.042482q-6.899876,14.831424-9.396507,16.958996t-2.688455,1.839834l-11.029926-3.740585-4.767287-7.267743Z" transform="translate(0 4.337656)" fill="#89acf3" stroke="#89acf3"/><ellipse rx="18.485668" ry="18.485668" transform="translate(1154.957516 386.031386)" fill="#cfd807" stroke-width="0"/></g></g><g id="e7CyYDvLEs214_to" transform="translate(1101.068486,2001.451417)"><g transform="translate(-1500.000042,-1500.000088)"><line x1="-116.935246" y1="133.31937" x2="116.935245" y2="-133.319369" transform="translate(1304.847132 210.766113)" fill="none" stroke="#fefeff" stroke-width="3"/><path d="M1141.942689,400.359366q-10.342039-14.32798-4.405014-25.934652q26.12564-30.975657,41.563833-38.143389t18.746377-13.7841l-15.247695,17.969713q10.145472-.016753,15.247695-4.185613t0,0q-7.887924,6.401554-8.269987,8.439224t-1.018835,2.165025l9.288822-6.418636q-6.375767,8.252514,0,4.126257t7.012539-4.126257q-30.351413,53.630144-30.351413,53.758525c0,.128381-8.479679,10.756719-14.634548,10.935121s-8.835643,2.172097-17.931774-4.801218Z" transform="matrix(.994886 0 0 0.934397 4.754186 27.406959)" fill="#ff5601" stroke="#ff5601"/><path d="M1154.957516,367.545718q16.13284-17.25809,18.485668-17.371879t3.9295-2.31176q-4.316058,7.001606-6.234306,8.344379t7.097518-3.644671l2.01416-1.726424q-1.342774,7.097518-3.836496,9.015766t-3.452846,5.946569l9.878977-6.042482q-6.899876,14.831424-9.396507,16.958996t-2.688455,1.839834l-11.029926-3.740585-4.767287-7.267743Z" transform="translate(0 4.337656)" fill="#89acf3" stroke="#89acf3"/><ellipse rx="18.485668" ry="18.485668" transform="translate(1154.957516 386.031386)" fill="#cfd807" stroke-width="0"/></g></g><g id="e7CyYDvLEs219_to" transform="translate(1449.854706,1853.482933)"><g transform="translate(-1500.000042,-1500.000088)"><line x1="-116.935246" y1="133.31937" x2="116.935245" y2="-133.319369" transform="translate(1304.847132 210.766113)" fill="none" stroke="#fefeff" stroke-width="3"/><path d="M1141.942689,400.359366q-10.342039-14.32798-4.405014-25.934652q26.12564-30.975657,41.563833-38.143389t18.746377-13.7841l-15.247695,17.969713q10.145472-.016753,15.247695-4.185613t0,0q-7.887924,6.401554-8.269987,8.439224t-1.018835,2.165025l9.288822-6.418636q-6.375767,8.252514,0,4.126257t7.012539-4.126257q-30.351413,53.630144-30.351413,53.758525c0,.128381-8.479679,10.756719-14.634548,10.935121s-8.835643,2.172097-17.931774-4.801218Z" transform="matrix(.994886 0 0 0.934397 4.754186 27.406959)" fill="#ff5601" stroke="#ff5601"/><path d="M1154.957516,367.545718q16.13284-17.25809,18.485668-17.371879t3.9295-2.31176q-4.316058,7.001606-6.234306,8.344379t7.097518-3.644671l2.01416-1.726424q-1.342774,7.097518-3.836496,9.015766t-3.452846,5.946569l9.878977-6.042482q-6.899876,14.831424-9.396507,16.958996t-2.688455,1.839834l-11.029926-3.740585-4.767287-7.267743Z" transform="translate(0 4.337656)" fill="#89acf3" stroke="#89acf3"/><ellipse rx="18.485668" ry="18.485668" transform="translate(1154.957516 386.031386)" fill="#cfd807" stroke-width="0"/></g></g><g id="e7CyYDvLEs224_to" transform="translate(1052.549352,1751.30074)"><g transform="translate(-1500.000042,-1500.000088)"><line x1="-116.935246" y1="133.31937" x2="116.935245" y2="-133.319369" transform="translate(1304.847132 210.766113)" fill="none" stroke="#fefeff" stroke-width="3"/><path d="M1141.942689,400.359366q-10.342039-14.32798-4.405014-25.934652q26.12564-30.975657,41.563833-38.143389t18.746377-13.7841l-15.247695,17.969713q10.145472-.016753,15.247695-4.185613t0,0q-7.887924,6.401554-8.269987,8.439224t-1.018835,2.165025l9.288822-6.418636q-6.375767,8.252514,0,4.126257t7.012539-4.126257q-30.351413,53.630144-30.351413,53.758525c0,.128381-8.479679,10.756719-14.634548,10.935121s-8.835643,2.172097-17.931774-4.801218Z" transform="matrix(.994886 0 0 0.934397 4.754186 27.406959)" fill="#ff5601" stroke="#ff5601"/><path d="M1154.957516,367.545718q16.13284-17.25809,18.485668-17.371879t3.9295-2.31176q-4.316058,7.001606-6.234306,8.344379t7.097518-3.644671l2.01416-1.726424q-1.342774,7.097518-3.836496,9.015766t-3.452846,5.946569l9.878977-6.042482q-6.899876,14.831424-9.396507,16.958996t-2.688455,1.839834l-11.029926-3.740585-4.767287-7.267743Z" transform="translate(0 4.337656)" fill="#89acf3" stroke="#89acf3"/><ellipse rx="18.485668" ry="18.485668" transform="translate(1154.957516 386.031386)" fill="#cfd807" stroke-width="0"/></g></g><g id="e7CyYDvLEs229_to" transform="translate(1787.461862,1692.866778)"><g transform="translate(-1500.000042,-1500.000088)"><line x1="-116.935246" y1="133.31937" x2="116.935245" y2="-133.319369" transform="translate(1304.847132 210.766113)" fill="none" stroke="#fefeff" stroke-width="3"/><path d="M1141.942689,400.359366q-10.342039-14.32798-4.405014-25.934652q26.12564-30.975657,41.563833-38.143389t18.746377-13.7841l-15.247695,17.969713q10.145472-.016753,15.247695-4.185613t0,0q-7.887924,6.401554-8.269987,8.439224t-1.018835,2.165025l9.288822-6.418636q-6.375767,8.252514,0,4.126257t7.012539-4.126257q-30.351413,53.630144-30.351413,53.758525c0,.128381-8.479679,10.756719-14.634548,10.935121s-8.835643,2.172097-17.931774-4.801218Z" transform="matrix(.994886 0 0 0.934397 4.754186 27.406959)" fill="#ff5601" stroke="#ff5601"/><path d="M1154.957516,367.545718q16.13284-17.25809,18.485668-17.371879t3.9295-2.31176q-4.316058,7.001606-6.234306,8.344379t7.097518-3.644671l2.01416-1.726424q-1.342774,7.097518-3.836496,9.015766t-3.452846,5.946569l9.878977-6.042482q-6.899876,14.831424-9.396507,16.958996t-2.688455,1.839834l-11.029926-3.740585-4.767287-7.267743Z" transform="translate(0 4.337656)" fill="#89acf3" stroke="#89acf3"/><ellipse rx="18.485668" ry="18.485668" transform="translate(1154.957516 386.031386)" fill="#cfd807" stroke-width="0"/></g></g></g></svg>
