<svg id="e129nsYESjN1" xmlns="http://www.w3.org/2000/svg" xmlns:xlink="http://www.w3.org/1999/xlink" viewBox="0 0 4000 300" shape-rendering="geometricPrecision" text-rendering="geometricPrecision">
<style><![CDATA[
#e129nsYESjN48_to {animation: e129nsYESjN48_to__to 10000ms linear infinite normal forwards}@keyframes e129nsYESjN48_to__to { 0% {offset-distance: 0%} 2% {offset-distance: 0%} 32% {offset-distance: 40.401653%} 71% {offset-distance: 75.849597%} 86% {offset-distance: 89.330485%} 100% {offset-distance: 100%}}
]]></style>
<defs><filter id="e129nsYESjN53-filter" x="-150%" width="400%" y="-150%" height="400%"><feGaussianBlur id="e129nsYESjN53-filter-blur-0" stdDeviation="0,0" result="result"/><feColorMatrix id="e129nsYESjN53-filter-saturate-0" type="saturate" values="1.03" result="result"/></filter></defs><rect width="150" height="30" rx="0" ry="0" transform="matrix(27.072812 0 0 11.286142-26.682191-19.185177)" fill="#1d3153" stroke-width="0"/><g><polygon points="0,-9.109052 2.677083,-3.684689 8.663223,-2.814852 4.331612,1.407426 5.354167,7.369378 0,4.554526 -5.354167,7.369378 -4.331612,1.407426 -8.663223,-2.814852 -2.677083,-3.684689 0,-9.109052" transform="translate(137.360328 36.887115)" fill="#d2dbed" stroke-width="0"/><polygon points="0,-8.425761 2.476269,-3.408292 8.013375,-2.603703 4.006687,1.301852 4.952538,6.816584 0,4.212881 -4.952538,6.816584 -4.006687,1.301852 -8.013375,-2.603703 -2.476269,-3.408292 0,-8.425761" transform="translate(290.745115 27.778063)" fill="#d2dbed" stroke-width="0"/><polygon points="0,-10.532201 3.095336,-4.260365 10.016719,-3.254629 5.008359,1.627315 6.190673,8.52073 0,5.266101 -6.190673,8.52073 -5.008359,1.627315 -10.016719,-3.254629 -3.095336,-4.260365 0,-10.532201" transform="translate(229.658348 79.01592)" fill="#d2dbed" stroke-width="0"/><polygon points="0,-2.978956 0.875493,-1.205013 2.833156,-0.920548 1.416578,0.460274 1.750986,2.410026 0,1.489478 -1.750986,2.410026 -1.416578,0.460274 -2.833156,-0.920548 -0.875493,-1.205013 0,-2.978956" transform="translate(474.005414 97.973882)" fill="#d2dbed" stroke-width="0"/><polygon points="0,-9.420287 2.768553,-3.810586 8.959225,-2.911029 4.479613,1.455514 5.537106,7.621172 0,4.710143 -5.537106,7.621172 -4.479613,1.455514 -8.959225,-2.911029 -2.768553,-3.810586 0,-9.420287" transform="translate(391.854246 121.144724)" fill="#d2dbed" stroke-width="0"/><polygon points="0,-14.693116 4.318198,-5.94349 13.973984,-4.540422 6.986992,2.270211 8.636397,11.88698 0,7.346558 -8.636397,11.88698 -6.986992,2.270211 -13.973984,-4.540422 -4.318198,-5.94349 0,-14.693116" transform="translate(1453.500118 249.924761)" fill="#d2dbed" stroke-width="0"/><polygon points="0,-11.303299 3.321956,-4.57228 10.750076,-3.492911 5.375038,1.746456 6.643912,9.144561 0,5.651649 -6.643912,9.144561 -5.375038,1.746456 -10.750076,-3.492911 -3.321956,-4.57228 0,-11.303299" transform="translate(1428.222835 111.724437)" fill="#d2dbed" stroke-width="0"/><polygon points="0,-4.446598 1.306822,-1.798687 4.228966,-1.374074 2.114483,0.687037 2.613645,3.597374 0,2.223299 -2.613645,3.597374 -2.114483,0.687037 -4.228966,-1.374074 -1.306822,-1.798687 0,-4.446598" transform="translate(1253.388297 34.594647)" fill="#d2dbed" stroke-width="0"/><polygon points="0,-9.713297 2.854666,-3.929111 9.237895,-3.001574 4.618947,1.500787 5.709333,7.858223 0,4.856649 -5.709333,7.858223 -4.618947,1.500787 -9.237895,-3.001574 -2.854666,-3.929111 0,-9.713297" transform="translate(971.125307 44.256493)" fill="#d2dbed" stroke-width="0"/><polygon points="0,-8.890239 2.612776,-3.596177 8.45512,-2.747235 4.22756,1.373617 5.225551,7.192354 0,4.44512 -5.225551,7.192354 -4.22756,1.373617 -8.45512,-2.747235 -2.612776,-3.596177 0,-8.890239" transform="translate(750 261.811741)" fill="#d2dbed" stroke-width="0"/><polygon points="0,-12.660199 3.720739,-5.121158 12.040565,-3.912217 6.020282,1.956108 7.441478,10.242316 0,6.3301 -7.441478,10.242316 -6.020282,1.956108 -12.040565,-3.912217 -3.720739,-5.121158 0,-12.660199" transform="translate(728.884681 68.483719)" fill="#d2dbed" stroke-width="0"/><polygon points="0,-7.594878 2.232079,-3.072193 7.223158,-2.346946 3.611579,1.173473 4.464157,6.144385 0,3.797439 -4.464157,6.144385 -3.611579,1.173473 -7.223158,-2.346946 -2.232079,-3.072193 0,-7.594878" transform="translate(14.801446 169.592849)" fill="#d2dbed" stroke-width="0"/><polygon points="0,-7.327281 2.153434,-2.963947 6.968658,-2.264254 3.484329,1.132127 4.306868,5.927895 0,3.66364 -4.306868,5.927895 -3.484329,1.132127 -6.968658,-2.264254 -2.153434,-2.963947 0,-7.327281" transform="translate(566.688784 52.114716)" fill="#d2dbed" stroke-width="0"/><polygon points="0,-11.93407 3.507335,-4.827433 11.349975,-3.68783 5.674988,1.843915 7.01467,9.654865 0,5.967035 -7.01467,9.654865 -5.674988,1.843915 -11.349975,-3.68783 -3.507335,-4.827433 0,-11.93407" transform="translate(1325.007264 269.004095)" fill="#d2dbed" stroke-width="0"/></g><g transform="translate(1602.965238 16.664975)"><polygon points="0,-9.109052 2.677083,-3.684689 8.663223,-2.814852 4.331612,1.407426 5.354167,7.369378 0,4.554526 -5.354167,7.369378 -4.331612,1.407426 -8.663223,-2.814852 -2.677083,-3.684689 0,-9.109052" transform="translate(137.360328 36.887115)" fill="#d2dbed" stroke-width="0"/><polygon points="0,-8.425761 2.476269,-3.408292 8.013375,-2.603703 4.006687,1.301852 4.952538,6.816584 0,4.212881 -4.952538,6.816584 -4.006687,1.301852 -8.013375,-2.603703 -2.476269,-3.408292 0,-8.425761" transform="translate(290.745115 27.778063)" fill="#d2dbed" stroke-width="0"/><polygon points="0,-10.532201 3.095336,-4.260365 10.016719,-3.254629 5.008359,1.627315 6.190673,8.52073 0,5.266101 -6.190673,8.52073 -5.008359,1.627315 -10.016719,-3.254629 -3.095336,-4.260365 0,-10.532201" transform="translate(229.658348 79.01592)" fill="#d2dbed" stroke-width="0"/><polygon points="0,-2.978956 0.875493,-1.205013 2.833156,-0.920548 1.416578,0.460274 1.750986,2.410026 0,1.489478 -1.750986,2.410026 -1.416578,0.460274 -2.833156,-0.920548 -0.875493,-1.205013 0,-2.978956" transform="translate(474.005414 97.973882)" fill="#d2dbed" stroke-width="0"/><polygon points="0,-9.420287 2.768553,-3.810586 8.959225,-2.911029 4.479613,1.455514 5.537106,7.621172 0,4.710143 -5.537106,7.621172 -4.479613,1.455514 -8.959225,-2.911029 -2.768553,-3.810586 0,-9.420287" transform="translate(391.854246 121.144724)" fill="#d2dbed" stroke-width="0"/><polygon points="0,-14.693116 4.318198,-5.94349 13.973984,-4.540422 6.986992,2.270211 8.636397,11.88698 0,7.346558 -8.636397,11.88698 -6.986992,2.270211 -13.973984,-4.540422 -4.318198,-5.94349 0,-14.693116" transform="translate(1453.500118 249.924761)" fill="#d2dbed" stroke-width="0"/><polygon points="0,-11.303299 3.321956,-4.57228 10.750076,-3.492911 5.375038,1.746456 6.643912,9.144561 0,5.651649 -6.643912,9.144561 -5.375038,1.746456 -10.750076,-3.492911 -3.321956,-4.57228 0,-11.303299" transform="translate(1428.222835 111.724437)" fill="#d2dbed" stroke-width="0"/><polygon points="0,-4.446598 1.306822,-1.798687 4.228966,-1.374074 2.114483,0.687037 2.613645,3.597374 0,2.223299 -2.613645,3.597374 -2.114483,0.687037 -4.228966,-1.374074 -1.306822,-1.798687 0,-4.446598" transform="translate(1253.388297 34.594647)" fill="#d2dbed" stroke-width="0"/><polygon points="0,-9.713297 2.854666,-3.929111 9.237895,-3.001574 4.618947,1.500787 5.709333,7.858223 0,4.856649 -5.709333,7.858223 -4.618947,1.500787 -9.237895,-3.001574 -2.854666,-3.929111 0,-9.713297" transform="translate(971.125307 44.256493)" fill="#d2dbed" stroke-width="0"/><polygon points="0,-8.890239 2.612776,-3.596177 8.45512,-2.747235 4.22756,1.373617 5.225551,7.192354 0,4.44512 -5.225551,7.192354 -4.22756,1.373617 -8.45512,-2.747235 -2.612776,-3.596177 0,-8.890239" transform="translate(750 261.811741)" fill="#d2dbed" stroke-width="0"/><polygon points="0,-12.660199 3.720739,-5.121158 12.040565,-3.912217 6.020282,1.956108 7.441478,10.242316 0,6.3301 -7.441478,10.242316 -6.020282,1.956108 -12.040565,-3.912217 -3.720739,-5.121158 0,-12.660199" transform="translate(728.884681 68.483719)" fill="#d2dbed" stroke-width="0"/><polygon points="0,-7.594878 2.232079,-3.072193 7.223158,-2.346946 3.611579,1.173473 4.464157,6.144385 0,3.797439 -4.464157,6.144385 -3.611579,1.173473 -7.223158,-2.346946 -2.232079,-3.072193 0,-7.594878" transform="translate(14.801446 169.592849)" fill="#d2dbed" stroke-width="0"/><polygon points="0,-7.327281 2.153434,-2.963947 6.968658,-2.264254 3.484329,1.132127 4.306868,5.927895 0,3.66364 -4.306868,5.927895 -3.484329,1.132127 -6.968658,-2.264254 -2.153434,-2.963947 0,-7.327281" transform="translate(566.688784 52.114716)" fill="#d2dbed" stroke-width="0"/><polygon points="0,-11.93407 3.507335,-4.827433 11.349975,-3.68783 5.674988,1.843915 7.01467,9.654865 0,5.967035 -7.01467,9.654865 -5.674988,1.843915 -11.349975,-3.68783 -3.507335,-4.827433 0,-11.93407" transform="translate(1325.007264 269.004095)" fill="#d2dbed" stroke-width="0"/></g><g transform="translate(3307.232997 21.341057)"><polygon points="0,-9.109052 2.677083,-3.684689 8.663223,-2.814852 4.331612,1.407426 5.354167,7.369378 0,4.554526 -5.354167,7.369378 -4.331612,1.407426 -8.663223,-2.814852 -2.677083,-3.684689 0,-9.109052" transform="translate(137.360328 36.887115)" fill="#d2dbed" stroke-width="0"/><polygon points="0,-8.425761 2.476269,-3.408292 8.013375,-2.603703 4.006687,1.301852 4.952538,6.816584 0,4.212881 -4.952538,6.816584 -4.006687,1.301852 -8.013375,-2.603703 -2.476269,-3.408292 0,-8.425761" transform="translate(290.745115 27.778063)" fill="#d2dbed" stroke-width="0"/><polygon points="0,-10.532201 3.095336,-4.260365 10.016719,-3.254629 5.008359,1.627315 6.190673,8.52073 0,5.266101 -6.190673,8.52073 -5.008359,1.627315 -10.016719,-3.254629 -3.095336,-4.260365 0,-10.532201" transform="translate(229.658348 79.01592)" fill="#d2dbed" stroke-width="0"/><polygon points="0,-2.978956 0.875493,-1.205013 2.833156,-0.920548 1.416578,0.460274 1.750986,2.410026 0,1.489478 -1.750986,2.410026 -1.416578,0.460274 -2.833156,-0.920548 -0.875493,-1.205013 0,-2.978956" transform="translate(474.005414 97.973882)" fill="#d2dbed" stroke-width="0"/><polygon points="0,-9.420287 2.768553,-3.810586 8.959225,-2.911029 4.479613,1.455514 5.537106,7.621172 0,4.710143 -5.537106,7.621172 -4.479613,1.455514 -8.959225,-2.911029 -2.768553,-3.810586 0,-9.420287" transform="translate(391.854246 121.144724)" fill="#d2dbed" stroke-width="0"/><polygon points="0,-14.693116 4.318198,-5.94349 13.973984,-4.540422 6.986992,2.270211 8.636397,11.88698 0,7.346558 -8.636397,11.88698 -6.986992,2.270211 -13.973984,-4.540422 -4.318198,-5.94349 0,-14.693116" transform="translate(1453.500118 249.924761)" fill="#d2dbed" stroke-width="0"/><polygon points="0,-11.303299 3.321956,-4.57228 10.750076,-3.492911 5.375038,1.746456 6.643912,9.144561 0,5.651649 -6.643912,9.144561 -5.375038,1.746456 -10.750076,-3.492911 -3.321956,-4.57228 0,-11.303299" transform="translate(1428.222835 111.724437)" fill="#d2dbed" stroke-width="0"/><polygon points="0,-4.446598 1.306822,-1.798687 4.228966,-1.374074 2.114483,0.687037 2.613645,3.597374 0,2.223299 -2.613645,3.597374 -2.114483,0.687037 -4.228966,-1.374074 -1.306822,-1.798687 0,-4.446598" transform="translate(1253.388297 34.594647)" fill="#d2dbed" stroke-width="0"/><polygon points="0,-9.713297 2.854666,-3.929111 9.237895,-3.001574 4.618947,1.500787 5.709333,7.858223 0,4.856649 -5.709333,7.858223 -4.618947,1.500787 -9.237895,-3.001574 -2.854666,-3.929111 0,-9.713297" transform="translate(971.125307 44.256493)" fill="#d2dbed" stroke-width="0"/><polygon points="0,-8.890239 2.612776,-3.596177 8.45512,-2.747235 4.22756,1.373617 5.225551,7.192354 0,4.44512 -5.225551,7.192354 -4.22756,1.373617 -8.45512,-2.747235 -2.612776,-3.596177 0,-8.890239" transform="translate(750 261.811741)" fill="#d2dbed" stroke-width="0"/><polygon points="0,-12.660199 3.720739,-5.121158 12.040565,-3.912217 6.020282,1.956108 7.441478,10.242316 0,6.3301 -7.441478,10.242316 -6.020282,1.956108 -12.040565,-3.912217 -3.720739,-5.121158 0,-12.660199" transform="translate(728.884681 68.483719)" fill="#d2dbed" stroke-width="0"/><polygon points="0,-7.594878 2.232079,-3.072193 7.223158,-2.346946 3.611579,1.173473 4.464157,6.144385 0,3.797439 -4.464157,6.144385 -3.611579,1.173473 -7.223158,-2.346946 -2.232079,-3.072193 0,-7.594878" transform="translate(14.801446 169.592849)" fill="#d2dbed" stroke-width="0"/><polygon points="0,-7.327281 2.153434,-2.963947 6.968658,-2.264254 3.484329,1.132127 4.306868,5.927895 0,3.66364 -4.306868,5.927895 -3.484329,1.132127 -6.968658,-2.264254 -2.153434,-2.963947 0,-7.327281" transform="translate(566.688784 52.114716)" fill="#d2dbed" stroke-width="0"/><polygon points="0,-11.93407 3.507335,-4.827433 11.349975,-3.68783 5.674988,1.843915 7.01467,9.654865 0,5.967035 -7.01467,9.654865 -5.674988,1.843915 -11.349975,-3.68783 -3.507335,-4.827433 0,-11.93407" transform="translate(1325.007264 269.004095)" fill="#d2dbed" stroke-width="0"/></g><g id="e129nsYESjN48_to" style="offset-path:path('M-188.527429,289.20555C961.887412,178.662946,1097.976614,241.165763,1586.057055,229.018981C2074.137496,216.872199,2978.593709,45.792169,3136.396073,78.726035C3294.198437,111.659901,3536.758469,274.127084,3701.855796,229.018981C3866.953123,183.910878,3992.36307,0.932122,4011.230233,-98.732529');offset-rotate:auto"><g transform="rotate(90) translate(-131.939758,-101.650612)"><path d="M79.007941,46.00827h14.601386q6.67492,12.515474,2.711686,17.730254t-.417183,7.300693q-5.840553-1.66873-5.21478-7.300693t-1.877321-5.631963q-2.294503,7.717876-.834365,10.22097t-.417183,4.380415q-4.797598-10.846744-3.963233-14.184203t-1.877321-1.042956q.417183,5.631964-1.877321,8.969423t-3.33746,2.920277l-.208591-7.717875Q74.418934,46.00827,79.007941,46.00827" transform="translate(46.049544 55.227951)" fill="#f80a0a" stroke="#ffed00" stroke-width="2"/><path d="M116.856689,110.212227L124.507555,93.089h14.8644l7.650866,16.903951-7.650866-7.236089-14.8644-.219276-7.650866,7.674641Z" fill="#808080" stroke="#818181" stroke-width="3"/><rect width="30.166132" height="43.573303" rx="1" ry="1" transform="translate(116.856689 49.515697)" fill="#dee5e8" stroke="#000"/><ellipse rx="150" ry="30" transform="matrix(.049548 0 0 0.248192 131.939755 66.387695)" fill="#bbbfc8" stroke="#040202"/><ellipse style="mix-blend-mode:lighten" rx="14" ry="20" transform="matrix(1 0 0 1.179651 131.730833 50.240495)" filter="url(#e129nsYESjN53-filter)" fill="#a60202" stroke="#000"/></g></g></svg>
